<svg id="visual" viewBox="0 0 960 540" width="960" height="540" xmlns="http://www.w3.org/2000/svg" xmlns:xlink="http://www.w3.org/1999/xlink" version="1.1"><rect x="0" y="0" width="960" height="540" fill="#FFFFFF"></rect><path d="M0 421L20 420.7C40 420.3 80 419.7 120 404.5C160 389.3 200 359.7 240 353.7C280 347.7 320 365.3 360 364.3C400 363.3 440 343.7 480 355C520 366.3 560 408.7 600 420.2C640 431.7 680 412.3 720 415.7C760 419 800 445 840 434.3C880 423.7 920 376.3 940 352.7L960 329L960 541L940 541C920 541 880 541 840 541C800 541 760 541 720 541C680 541 640 541 600 541C560 541 520 541 480 541C440 541 400 541 360 541C320 541 280 541 240 541C200 541 160 541 120 541C80 541 40 541 20 541L0 541Z" fill="#715DF2" stroke-linecap="round" stroke-linejoin="miter"></path></svg>