<svg id="visual" viewBox="0 0 900 600" width="900" height="600" xmlns="http://www.w3.org/2000/svg" xmlns:xlink="http://www.w3.org/1999/xlink" version="1.1"><rect x="0" y="0" width="900" height="600" fill="#FFFFFF"></rect><defs><linearGradient id="grad1_0" x1="33.3%" y1="0%" x2="100%" y2="100%"><stop offset="20%" stop-color="#715df2" stop-opacity="1"></stop><stop offset="80%" stop-color="#715df2" stop-opacity="1"></stop></linearGradient></defs><defs><linearGradient id="grad1_1" x1="33.3%" y1="0%" x2="100%" y2="100%"><stop offset="20%" stop-color="#715df2" stop-opacity="1"></stop><stop offset="80%" stop-color="#ffffff" stop-opacity="1"></stop></linearGradient></defs><defs><linearGradient id="grad2_0" x1="0%" y1="0%" x2="66.7%" y2="100%"><stop offset="20%" stop-color="#715df2" stop-opacity="1"></stop><stop offset="80%" stop-color="#715df2" stop-opacity="1"></stop></linearGradient></defs><defs><linearGradient id="grad2_1" x1="0%" y1="0%" x2="66.7%" y2="100%"><stop offset="20%" stop-color="#ffffff" stop-opacity="1"></stop><stop offset="80%" stop-color="#715df2" stop-opacity="1"></stop></linearGradient></defs><g transform="translate(900, 0)"><path d="M0 297.5C-41.4 296.3 -82.8 295.2 -113.8 274.8C-144.9 254.4 -165.5 214.8 -182.4 182.4C-199.3 150 -212.4 124.9 -231 95.7C-249.5 66.5 -273.5 33.2 -297.5 0L0 0Z" fill="#c1acfa"></path><path d="M0 148.7C-20.7 148.2 -41.4 147.6 -56.9 137.4C-72.4 127.2 -82.8 107.4 -91.2 91.2C-99.7 75 -106.2 62.4 -115.5 47.8C-124.8 33.2 -136.7 16.6 -148.7 0L0 0Z" fill="#715df2"></path></g><g transform="translate(0, 600)"><path d="M0 -297.5C31.4 -276.1 62.8 -254.8 101 -243.9C139.2 -233 184.2 -232.5 210.3 -210.3C236.4 -188.2 243.6 -144.3 255 -105.6C266.4 -66.9 281.9 -33.5 297.5 0L0 0Z" fill="#c1acfa"></path><path d="M0 -148.7C15.7 -138.1 31.4 -127.4 50.5 -122C69.6 -116.5 92.1 -116.3 105.2 -105.2C118.2 -94.1 121.8 -72.1 127.5 -52.8C133.2 -33.5 141 -16.7 148.7 0L0 0Z" fill="#715df2"></path></g></svg>